<svg xmlns="http://www.w3.org/2000/svg" xmlns:xlink="http://www.w3.org/1999/xlink" enable-background="new 0 0 80 80" height="80px" id="Icons" version="1.1" viewBox="0 0 80 80" width="80px" xml:space="preserve"><g><path d="M34.817,36.486c-0.031-0.353-0.052-0.709-0.052-1.07c0-1.368,0.235-2.68,0.65-3.91c-2.252-0.111-4.055-1.963-4.055-4.242   c0-2.351,1.912-4.263,4.263-4.263c1.796,0,3.329,1.12,3.956,2.696c1.32-1.014,2.849-1.763,4.514-2.174   C42.655,20.271,39.407,18,35.623,18c-5.116,0-9.263,4.147-9.263,9.263C26.36,32.107,30.079,36.076,34.817,36.486z"/><path d="M20.949,46.198c2.034-1.22,4.495-2.179,7.138-2.781c1.824,0.798,3.764,1.297,5.739,1.489   c1.352-0.477,2.754-0.884,4.191-1.2c-0.992-1.077-1.794-2.331-2.355-3.708c-0.01,0-0.02,0.002-0.03,0.002   c-2.49,0-4.823-0.667-6.846-1.818c-4.66,0.796-8.778,2.498-11.832,4.655c-0.591,0.418-0.968,1.072-1.006,1.795l0.003,6.826   c-0.069,1.325,0.986,2.437,2.313,2.437h6.089l-0.001-1.11v-0.079l0.004-0.079c0.076-1.449,0.733-2.78,1.821-3.732h-5.228   L20.949,46.198z"/><path d="M63.46,50.849c-2.496-1.881-6.055-3.38-10.1-4.233c-1.899,0.975-4.044,1.537-6.322,1.537c-2.49,0-4.823-0.667-6.846-1.818   c-4.66,0.796-8.778,2.498-11.832,4.655c-0.591,0.418-0.968,1.072-1.006,1.795l0.003,6.826c-0.069,1.325,0.986,2.437,2.313,2.437   h32.415c1.232,0,2.248-0.964,2.313-2.195l0.008-7.127C64.406,51.984,64.051,51.295,63.46,50.849z M59.4,57.047H32.355l-0.001-2.697   c2.034-1.22,4.495-2.179,7.138-2.781c2.377,1.04,4.951,1.583,7.545,1.583c2.355,0,4.638-0.43,6.812-1.279   c2.12,0.57,4.048,1.357,5.553,2.265L59.4,57.047z"/><path d="M37.765,35.415c0,5.116,4.147,9.263,9.263,9.263s9.263-4.147,9.263-9.263s-4.147-9.263-9.263-9.263   S37.765,30.299,37.765,35.415z M47.028,31.152c2.351,0,4.263,1.912,4.263,4.263s-1.912,4.263-4.263,4.263s-4.263-1.912-4.263-4.263   S44.677,31.152,47.028,31.152z"/></g></svg>